# xmcd
#
# Track frame offsets: 
#        150
#        17248
#        35172
#        52937
#        72277
#        90290
#        108942
#        126931
#        141931
#        154524
#        172459
#        189658
#        213255
#        229928
#        246965
#        265302
#        283380
#        299871
#        316263
#        332564
#
# Disc length: 4665 seconds
#
# Revision: 3
# Processed by: cddbd v1.5.2PL0 Copyright (c) Steve Scherf et al.
# Submitted via: ExactAudioCopy v1.1
#
DISCID=3a123714
DTITLE=Chris Brown - Fortune [Deluxe Edition] [Japan]
DYEAR=2012
DGENRE=R&B
TTITLE0=Turn Up The Music
TTITLE1=Bassline
TTITLE2=Till I Die feat. Big Sean and Wiz Khalifa
TTITLE3=Mirage feat. Nas
TTITLE4=Don't Judge Me
TTITLE5=2012
TTITLE6=Biggest Fan
TTITLE7=Sweet Love
TTITLE8=Strip feat. Kevin McCall
TTITLE9=Stuck On Stupid
TTITLE10=4 Years Old
TTITLE11=Party Hard - Cadillac (Interlude) feat. Sevyn
TTITLE12=Don't Wake Me Up
TTITLE13=Trumpet Lights feat. Sabrina Antoinette
TTITLE14=Tell Somebody
TTITLE15=Free Run
TTITLE16=Remember My Name feat. Sevyn
TTITLE17=Wait For You
TTITLE18=Touch Me feat. Sevyn
TTITLE19=Your World
EXTD=
EXTT0=
EXTT1=
EXTT2=
EXTT3=
EXTT4=
EXTT5=
EXTT6=
EXTT7=
EXTT8=
EXTT9=
EXTT10=
EXTT11=
EXTT12=
EXTT13=
EXTT14=
EXTT15=
EXTT16=
EXTT17=
EXTT18=
EXTT19=
PLAYORDER=
